<svg width="199" height="39" viewBox="0 0 199 39" fill="none" xmlns="http://www.w3.org/2000/svg">
<path d="M33.1718 9.00443L17.5926 0.344971L2.01337 9.00443L11.9239 14.4972C13.3508 13.0116 15.3642 12.0734 17.5926 12.0734C19.821 12.0734 21.8344 13.0116 23.2613 14.4972L33.1718 9.00443ZM13.6831 19.8923C13.6831 17.7421 15.4424 15.9828 17.5926 15.9828C19.7428 15.9828 21.5021 17.7421 21.5021 19.8923C21.5021 22.0425 19.7428 23.8018 17.5926 23.8018C15.4424 23.8018 13.6831 22.0425 13.6831 19.8923ZM15.6379 38.345L0 29.666V12.347L10.0278 17.918C9.85185 18.5435 9.77366 19.2081 9.77366 19.8923C9.77366 23.5281 12.2562 26.597 15.6379 27.4571V38.345ZM19.5473 38.345V27.4571C22.929 26.597 25.4115 23.5281 25.4115 19.8923C25.4115 19.2081 25.3333 18.5435 25.1574 17.918L35.1852 12.347V29.666L19.5473 38.345Z" fill="url(#paint0_linear_1805:4154)"/>
<path d="M49.9356 24.745C49.9356 25.1503 49.9676 25.5343 50.0316 25.897C50.1169 26.2383 50.2556 26.537 50.4476 26.793C50.6396 27.049 50.9063 27.2516 51.2476 27.401C51.6103 27.529 52.0689 27.593 52.6236 27.593H54.3196C54.5543 27.593 54.7569 27.6783 54.9276 27.849C55.0983 28.0196 55.1836 28.2223 55.1836 28.457V29.481C55.1836 29.7156 55.0983 29.9183 54.9276 30.089C54.7569 30.2596 54.5543 30.345 54.3196 30.345H52.3036C50.4476 30.345 49.1036 29.865 48.2716 28.905C47.4396 27.945 47.0236 26.5583 47.0236 24.745V16.457H44.6556C44.4209 16.457 44.2183 16.3716 44.0476 16.201C43.8769 16.0303 43.7916 15.8276 43.7916 15.593V14.569C43.7916 14.3343 43.8769 14.1316 44.0476 13.961C44.2183 13.7903 44.4209 13.705 44.6556 13.705H47.0236V8.48897C47.0236 8.2543 47.1089 8.05164 47.2796 7.88097C47.4503 7.7103 47.6529 7.62497 47.8876 7.62497H49.0716C49.3063 7.62497 49.5089 7.7103 49.6796 7.88097C49.8503 8.05164 49.9356 8.2543 49.9356 8.48897V13.705H53.9996C54.2343 13.705 54.4369 13.7903 54.6076 13.961C54.7783 14.1316 54.8636 14.3343 54.8636 14.569V15.593C54.8636 15.8276 54.7783 16.0303 54.6076 16.201C54.4369 16.3716 54.2343 16.457 53.9996 16.457H49.9356V24.745ZM65.2121 13.385C66.3641 13.385 67.3881 13.5663 68.2841 13.929C69.1801 14.2703 69.9481 14.7503 70.5881 15.369C71.2281 15.9876 71.7294 16.745 72.0921 17.641C72.4761 18.5156 72.7108 19.4756 72.7961 20.521C72.8174 20.713 72.8281 20.9476 72.8281 21.225C72.8281 21.481 72.8281 21.7583 72.8281 22.057C72.8281 22.3343 72.8281 22.6116 72.8281 22.889C72.8281 23.145 72.8174 23.3583 72.7961 23.529C72.6894 24.5956 72.4548 25.5663 72.0921 26.441C71.7294 27.3156 71.2281 28.0623 70.5881 28.681C69.9481 29.2996 69.1801 29.7903 68.2841 30.153C67.3881 30.4943 66.3641 30.665 65.2121 30.665C64.0601 30.665 63.0361 30.4943 62.1401 30.153C61.2441 29.7903 60.4761 29.2996 59.8361 28.681C59.1961 28.0623 58.6841 27.3156 58.3001 26.441C57.9374 25.5663 57.7134 24.5956 57.6281 23.529C57.6068 23.3583 57.5854 23.145 57.5641 22.889C57.5641 22.6116 57.5641 22.3343 57.5641 22.057C57.5641 21.7583 57.5641 21.481 57.5641 21.225C57.5854 20.9476 57.6068 20.713 57.6281 20.521C57.7134 19.4756 57.9374 18.5156 58.3001 17.641C58.6841 16.745 59.1961 15.9876 59.8361 15.369C60.4761 14.7503 61.2441 14.2703 62.1401 13.929C63.0361 13.5663 64.0601 13.385 65.2121 13.385ZM69.8841 23.369C69.9268 23.0063 69.9481 22.569 69.9481 22.057C69.9481 21.5236 69.9268 21.065 69.8841 20.681C69.8201 20.041 69.6814 19.4436 69.4681 18.889C69.2548 18.3343 68.9561 17.8543 68.5721 17.449C68.1881 17.0436 67.7188 16.7236 67.1641 16.489C66.6094 16.2543 65.9588 16.137 65.2121 16.137C64.4654 16.137 63.8148 16.2543 63.2601 16.489C62.7054 16.7236 62.2361 17.0436 61.8521 17.449C61.4681 17.8543 61.1694 18.3343 60.9561 18.889C60.7428 19.4436 60.6041 20.041 60.5401 20.681C60.4974 21.065 60.4761 21.5236 60.4761 22.057C60.4761 22.569 60.4974 23.0063 60.5401 23.369C60.6041 24.009 60.7428 24.6063 60.9561 25.161C61.1694 25.7156 61.4681 26.1956 61.8521 26.601C62.2361 27.0063 62.7054 27.3263 63.2601 27.561C63.8148 27.7956 64.4654 27.913 65.2121 27.913C65.9588 27.913 66.6094 27.7956 67.1641 27.561C67.7188 27.3263 68.1881 27.0063 68.5721 26.601C68.9561 26.1956 69.2548 25.7156 69.4681 25.161C69.6814 24.6063 69.8201 24.009 69.8841 23.369ZM79.7768 23.305V29.481C79.7768 29.7156 79.6915 29.9183 79.5208 30.089C79.3502 30.2596 79.1475 30.345 78.9128 30.345H77.7288C77.4942 30.345 77.2915 30.2596 77.1208 30.089C76.9502 29.9183 76.8648 29.7156 76.8648 29.481V8.48897C76.8648 8.2543 76.9502 8.05164 77.1208 7.88097C77.2915 7.7103 77.4942 7.62497 77.7288 7.62497H78.9128C79.1475 7.62497 79.3502 7.7103 79.5208 7.88097C79.6915 8.05164 79.7768 8.2543 79.7768 8.48897V19.081L86.0168 14.249C86.1448 14.1423 86.3048 14.025 86.4968 13.897C86.7102 13.769 86.9662 13.705 87.2648 13.705H88.8648C89.0782 13.705 89.2595 13.7796 89.4088 13.929C89.5582 14.0783 89.6328 14.2596 89.6328 14.473C89.6328 14.5796 89.6115 14.6863 89.5688 14.793C89.5475 14.8783 89.4515 14.985 89.2808 15.113L81.5688 21.129L90.0808 28.969C90.2088 29.097 90.2942 29.2036 90.3368 29.289C90.3795 29.3743 90.4008 29.4703 90.4008 29.577C90.4008 29.7903 90.3262 29.9716 90.1768 30.121C90.0275 30.2703 89.8462 30.345 89.6328 30.345H88.1288C87.8088 30.345 87.5315 30.281 87.2968 30.153C87.0835 30.025 86.9235 29.9076 86.8168 29.801L79.7768 23.305ZM91.5031 20.425C91.5884 19.4436 91.8231 18.5263 92.2071 17.673C92.5911 16.8196 93.0924 16.073 93.7111 15.433C94.3298 14.793 95.0658 14.2916 95.9191 13.929C96.7938 13.5663 97.7644 13.385 98.8311 13.385C99.9831 13.385 101.007 13.577 101.903 13.961C102.82 14.3236 103.599 14.857 104.239 15.561C104.879 16.265 105.37 17.1183 105.711 18.121C106.052 19.1236 106.223 20.2436 106.223 21.481V22.345C106.223 22.5796 106.138 22.7823 105.967 22.953C105.796 23.1236 105.594 23.209 105.359 23.209H94.3511V23.401C94.3938 24.8516 94.8311 25.9716 95.6631 26.761C96.5164 27.529 97.5724 27.913 98.8311 27.913C100.004 27.913 100.879 27.753 101.455 27.433C102.052 27.0916 102.532 26.7183 102.895 26.313C103.066 26.1423 103.215 26.025 103.343 25.961C103.471 25.897 103.663 25.865 103.919 25.865H104.879C105.114 25.865 105.327 25.9503 105.519 26.121C105.711 26.2916 105.786 26.4943 105.743 26.729C105.679 27.113 105.498 27.5396 105.199 28.009C104.9 28.457 104.463 28.8836 103.887 29.289C103.332 29.673 102.628 30.0036 101.775 30.281C100.943 30.537 99.9618 30.665 98.8311 30.665C97.7644 30.665 96.8044 30.4836 95.9511 30.121C95.0978 29.737 94.3511 29.225 93.7111 28.585C93.0924 27.9236 92.5911 27.1556 92.2071 26.281C91.8231 25.385 91.5884 24.4143 91.5031 23.369C91.3964 22.3876 91.3964 21.4063 91.5031 20.425ZM94.3511 20.521H103.343V20.425C103.343 19.1236 102.927 18.089 102.095 17.321C101.284 16.5316 100.196 16.137 98.8311 16.137C98.2124 16.137 97.6364 16.2436 97.1031 16.457C96.5698 16.649 96.1004 16.937 95.6951 17.321C95.2898 17.6836 94.9698 18.1316 94.7351 18.665C94.5004 19.1983 94.3724 19.785 94.3511 20.425V20.521ZM124.868 29.481C124.868 29.7156 124.782 29.9183 124.612 30.089C124.441 30.2596 124.238 30.345 124.004 30.345H122.82C122.585 30.345 122.382 30.2596 122.212 30.089C122.041 29.9183 121.956 29.7156 121.956 29.481V21.033C121.956 19.3903 121.561 18.1636 120.772 17.353C119.982 16.5423 118.884 16.137 117.476 16.137C116.132 16.137 115.044 16.5423 114.212 17.353C113.401 18.1636 112.996 19.3903 112.996 21.033V29.481C112.996 29.7156 112.91 29.9183 112.74 30.089C112.569 30.2596 112.366 30.345 112.132 30.345H110.948C110.713 30.345 110.51 30.2596 110.34 30.089C110.169 29.9183 110.084 29.7156 110.084 29.481V14.569C110.084 14.3343 110.169 14.1316 110.34 13.961C110.51 13.7903 110.713 13.705 110.948 13.705H112.132C112.366 13.705 112.569 13.7903 112.74 13.961C112.91 14.1316 112.996 14.3343 112.996 14.569V15.561C113.401 15.0276 113.998 14.537 114.788 14.089C115.598 13.6196 116.654 13.385 117.956 13.385C118.958 13.385 119.886 13.5556 120.74 13.897C121.593 14.217 122.318 14.6863 122.916 15.305C123.534 15.9023 124.014 16.649 124.356 17.545C124.697 18.441 124.868 19.4436 124.868 20.553V29.481ZM132.433 15.561C132.625 15.305 132.849 15.049 133.105 14.793C133.361 14.5156 133.649 14.281 133.969 14.089C134.31 13.8756 134.705 13.705 135.153 13.577C135.601 13.449 136.124 13.385 136.721 13.385C138.022 13.385 139.1 13.6303 139.953 14.121C140.806 14.5903 141.478 15.273 141.969 16.169C142.246 15.785 142.534 15.4223 142.833 15.081C143.153 14.7396 143.516 14.441 143.921 14.185C144.348 13.929 144.817 13.737 145.329 13.609C145.862 13.4596 146.481 13.385 147.185 13.385C149.34 13.385 150.908 14.0356 151.889 15.337C152.87 16.617 153.361 18.377 153.361 20.617V29.481C153.361 29.7156 153.276 29.9183 153.105 30.089C152.934 30.2596 152.732 30.345 152.497 30.345H151.313C151.078 30.345 150.876 30.2596 150.705 30.089C150.534 29.9183 150.449 29.7156 150.449 29.481V20.937C150.449 19.2943 150.129 18.089 149.489 17.321C148.849 16.5316 147.91 16.137 146.673 16.137C145.542 16.137 144.625 16.5103 143.921 17.257C143.238 18.0036 142.897 19.1556 142.897 20.713V29.481C142.897 29.7156 142.812 29.9183 142.641 30.089C142.47 30.2596 142.268 30.345 142.033 30.345H140.849C140.614 30.345 140.412 30.2596 140.241 30.089C140.07 29.9183 139.985 29.7156 139.985 29.481V20.937C139.985 19.2943 139.665 18.089 139.025 17.321C138.385 16.5316 137.446 16.137 136.209 16.137C135.078 16.137 134.161 16.5103 133.457 17.257C132.774 18.0036 132.433 19.1556 132.433 20.713V29.481C132.433 29.7156 132.348 29.9183 132.177 30.089C132.006 30.2596 131.804 30.345 131.569 30.345H130.385C130.15 30.345 129.948 30.2596 129.777 30.089C129.606 29.9183 129.521 29.7156 129.521 29.481V14.569C129.521 14.3343 129.606 14.1316 129.777 13.961C129.948 13.7903 130.15 13.705 130.385 13.705H131.569C131.804 13.705 132.006 13.7903 132.177 13.961C132.348 14.1316 132.433 14.3343 132.433 14.569V15.561ZM156.806 26.153C156.806 25.2996 156.977 24.553 157.318 23.913C157.659 23.273 158.129 22.729 158.726 22.281C159.323 21.833 160.017 21.4703 160.806 21.193C161.617 20.9156 162.47 20.7023 163.366 20.553L167.878 19.817V19.401C167.878 18.313 167.515 17.5023 166.79 16.969C166.086 16.4143 165.201 16.137 164.134 16.137C163.195 16.137 162.481 16.3076 161.99 16.649C161.521 16.9903 161.115 17.3956 160.774 17.865C160.646 18.0356 160.507 18.153 160.358 18.217C160.209 18.281 160.006 18.313 159.75 18.313H158.79C158.555 18.313 158.342 18.2276 158.15 18.057C157.979 17.8863 157.905 17.6836 157.926 17.449C157.969 16.9796 158.15 16.4996 158.47 16.009C158.811 15.5183 159.259 15.081 159.814 14.697C160.39 14.313 161.041 14.0036 161.766 13.769C162.513 13.513 163.302 13.385 164.134 13.385C165.094 13.385 165.979 13.5236 166.79 13.801C167.622 14.0783 168.326 14.4836 168.902 15.017C169.499 15.5503 169.958 16.2116 170.278 17.001C170.619 17.7903 170.79 18.697 170.79 19.721V29.481C170.79 29.7156 170.705 29.9183 170.534 30.089C170.363 30.2596 170.161 30.345 169.926 30.345H168.742C168.507 30.345 168.305 30.2596 168.134 30.089C167.963 29.9183 167.878 29.7156 167.878 29.481V28.169C167.686 28.5743 167.387 28.937 166.982 29.257C166.577 29.5556 166.107 29.8116 165.574 30.025C165.062 30.2383 164.518 30.3983 163.942 30.505C163.387 30.6116 162.865 30.665 162.374 30.665C161.542 30.665 160.774 30.5476 160.07 30.313C159.387 30.0783 158.801 29.769 158.31 29.385C157.841 28.9796 157.467 28.4996 157.19 27.945C156.934 27.3903 156.806 26.793 156.806 26.153ZM162.694 27.913C163.462 27.913 164.166 27.7956 164.806 27.561C165.446 27.3263 165.99 27.0063 166.438 26.601C166.907 26.1743 167.259 25.673 167.494 25.097C167.75 24.521 167.878 23.881 167.878 23.177V22.377L164.102 22.985C162.758 23.1983 161.691 23.5396 160.902 24.009C160.113 24.4783 159.718 25.0863 159.718 25.833C159.718 26.0676 159.771 26.3023 159.878 26.537C159.985 26.7716 160.155 26.9956 160.39 27.209C160.625 27.4223 160.923 27.593 161.286 27.721C161.67 27.849 162.139 27.913 162.694 27.913ZM183.907 13.705C184.141 13.705 184.344 13.7903 184.515 13.961C184.685 14.1316 184.771 14.3343 184.771 14.569V15.593C184.771 15.8276 184.685 16.0303 184.515 16.201C184.344 16.3716 184.141 16.457 183.907 16.457H182.051C179.597 16.457 178.371 17.6836 178.371 20.137V29.481C178.371 29.7156 178.285 29.9183 178.115 30.089C177.944 30.2596 177.741 30.345 177.507 30.345H176.323C176.088 30.345 175.885 30.2596 175.715 30.089C175.544 29.9183 175.459 29.7156 175.459 29.481V14.569C175.459 14.3343 175.544 14.1316 175.715 13.961C175.885 13.7903 176.088 13.705 176.323 13.705H177.507C177.741 13.705 177.944 13.7903 178.115 13.961C178.285 14.1316 178.371 14.3343 178.371 14.569V15.561C178.797 14.921 179.309 14.4516 179.907 14.153C180.504 13.8543 181.283 13.705 182.243 13.705H183.907ZM191.904 24.745C191.904 25.1503 191.936 25.5343 192 25.897C192.086 26.2383 192.224 26.537 192.416 26.793C192.608 27.049 192.875 27.2516 193.216 27.401C193.579 27.529 194.038 27.593 194.592 27.593H196.288C196.523 27.593 196.726 27.6783 196.896 27.849C197.067 28.0196 197.152 28.2223 197.152 28.457V29.481C197.152 29.7156 197.067 29.9183 196.896 30.089C196.726 30.2596 196.523 30.345 196.288 30.345H194.272C192.416 30.345 191.072 29.865 190.24 28.905C189.408 27.945 188.992 26.5583 188.992 24.745V16.457H186.624C186.39 16.457 186.187 16.3716 186.016 16.201C185.846 16.0303 185.76 15.8276 185.76 15.593V14.569C185.76 14.3343 185.846 14.1316 186.016 13.961C186.187 13.7903 186.39 13.705 186.624 13.705H188.992V8.48897C188.992 8.2543 189.078 8.05164 189.248 7.88097C189.419 7.7103 189.622 7.62497 189.856 7.62497H191.04C191.275 7.62497 191.478 7.7103 191.648 7.88097C191.819 8.05164 191.904 8.2543 191.904 8.48897V13.705H195.968C196.203 13.705 196.406 13.7903 196.576 13.961C196.747 14.1316 196.832 14.3343 196.832 14.569V15.593C196.832 15.8276 196.747 16.0303 196.576 16.201C196.406 16.3716 196.203 16.457 195.968 16.457H191.904V24.745Z" fill="#F8FAFC"/>
<defs>
<linearGradient id="paint0_linear_1805:4154" x1="0" y1="19.345" x2="35.1852" y2="19.345" gradientUnits="userSpaceOnUse">
<stop stop-color="#4776E6"/>
<stop offset="1" stop-color="#8E54E9"/>
</linearGradient>
</defs>
</svg>
