<?xml version="1.0" encoding="UTF-8" standalone="no"?>
<svg
   width="22"
   height="19"
   viewBox="0 0 22 19"
   fill="none"
   version="1.1"
   id="svg11"
   sodipodi:docname="Logout.svg"
   inkscape:version="1.1.2 (b8e25be833, 2022-02-05)"
   xmlns:inkscape="http://www.inkscape.org/namespaces/inkscape"
   xmlns:sodipodi="http://sodipodi.sourceforge.net/DTD/sodipodi-0.dtd"
   xmlns="http://www.w3.org/2000/svg"
   xmlns:svg="http://www.w3.org/2000/svg">
  <sodipodi:namedview
     id="namedview13"
     pagecolor="#ffffff"
     bordercolor="#666666"
     borderopacity="1.0"
     inkscape:pageshadow="2"
     inkscape:pageopacity="0.0"
     inkscape:pagecheckerboard="0"
     showgrid="false"
     inkscape:snap-global="false"
     inkscape:zoom="22.552632"
     inkscape:cx="17.847141"
     inkscape:cy="15.785298"
     inkscape:window-width="1920"
     inkscape:window-height="1017"
     inkscape:window-x="-8"
     inkscape:window-y="-8"
     inkscape:window-maximized="1"
     inkscape:current-layer="svg11" />
  <defs
     id="defs9">
    <linearGradient
       id="paint0_linear"
       x1="1"
       y1="9.5"
       x2="21"
       y2="9.5"
       gradientUnits="userSpaceOnUse">
      <stop
         stop-color="#4776E6"
         id="stop4" />
      <stop
         offset="1"
         stop-color="#8E54E9"
         id="stop6" />
    </linearGradient>
  </defs>
  <path
     d="m 6.9361471,3.1398213 c 0.708313,0 1.2805647,-0.5722517 1.2805647,-1.2805648 0,-0.7083129 -0.5722517,-1.28056456 -1.2805647,-1.28056456 H 4.3750156 c -2.1209362,0 -3.84169609,1.72075966 -3.84169609,3.84169596 V 14.664912 c 0,2.120936 1.72075989,3.841696 3.84169609,3.841696 h 2.5611315 c 0.708313,0 1.2805647,-0.572254 1.2805647,-1.280566 0,-0.708314 -0.5722517,-1.280566 -1.2805647,-1.280566 H 4.3750156 c -0.7083128,0 -1.2805667,-0.572253 -1.2805667,-1.280564 V 4.4203879 c 0,-0.7083129 0.5722539,-1.2805666 1.2805667,-1.2805666 z M 20.722235,10.238956 c 0.192084,-0.180079 0.30013,-0.4321897 0.30013,-0.6963067 0,-0.264118 -0.108046,-0.516228 -0.30013,-0.696308 L 14.959689,3.4039386 C 14.679566,3.1398213 14.271385,3.0677894 13.919229,3.2198563 13.567075,3.371925 13.338974,3.7200779 13.338974,4.1002463 v 2.881271 H 8.2167118 c -0.708313,0 -1.2805647,0.5722539 -1.2805647,1.2805668 v 2.5611289 c 0,0.708314 0.5722517,1.280566 1.2805647,1.280566 h 5.1222622 v 2.881273 c 0,0.38417 0.228101,0.728323 0.580255,0.880388 0.352156,0.152069 0.760337,0.08003 1.04046,-0.184082 z"
     id="path830"
     style="fill:#ffffff;stroke-width:0.999997" />
</svg>
